Patient4_TMGait_0pt4_02_left_02_EMG.mot
version=1
nRows=27
nColumns=33
inDegrees=no
endheader
time	1LAddLong	2LGlutMax	3LGlutMed	4LIliopsoas	5LSemiMemb	6LBicFemLong	7LRecFem	8LVastMed	9LVastLat	10LGasMed	11LTibAnt	12lTibPost	13LPeroneusLong	14LSol	15LExtDigLong	16LFlexDigLong	17RAddLong	18RGlutMax	19RGlutMed	20RIliopsoas	21RSemiMemb	22RBicFemLong	23RRecFem	24RVastMed	25RVastLat	26RGasMed	27RTibAnt	28RTibPost	29RPeroneusLong	30RSol	31RExtDigLong	32RFlexDigLong
3.505	0.011597	0.034027	0.015869	0.006409	0.06897	-0.093689	-0.16403	0.003204	-0.006714	-0.15228	0.014343	-0.000458	0.12619	0.11215	0.021667	-0.2005	0.062408	-0.17425	-0.41611	-0.10407	0.59403	-0.24353	-0.072479	-0.046387	0.09903	-0.002747	-0.71137	0.005188	-1.1823	-0.028992	-0.003052	-0.011749
3.506	0.01236	0.013733	-0.062256	-0.003204	0.066528	0.07782	-0.16113	0.00061	-0.016479	0.093231	0.019073	0.002441	0.14847	0.14877	0.027924	0.18631	0.077515	-0.15198	-0.48691	-0.12161	0.39505	-0.2214	-0.028076	-0.12848	0.099945	0.011444	-0.24658	0.008392	-0.31754	-0.10468	-0.007477	-0.009613
3.507	0.007629	0.027008	-0.081635	-0.004578	0.030365	0.026398	-0.1593	0.00061	-0.019989	0.36072	0.009308	-0.002441	0.11017	0.041504	0.017242	-0.20523	0.075226	-0.18249	-0.52536	-0.13504	0.46081	-0.15961	0.027008	-0.22156	0.080719	0.001831	0.17624	0.008087	0.5693	-0.16708	0.004425	-0.020142
3.508	0.013733	-0.005646	-0.075531	0.023346	-0.007629	-0.024567	-0.16846	-0.001221	-0.01709	0.8461	0.017242	0.019989	0.062714	-0.18372	0.074005	0.13397	0.076599	-0.13473	-0.54794	-0.012054	0.48157	-0.072784	0.040588	-0.22476	0.074768	0.002899	-0.037842	0.006866	0.40817	-0.060425	-0.003662	-0.001678
3.509	0.010986	0.024109	-0.002899	0.024567	-0.02121	-0.010834	-0.17166	0.005035	-0.009308	0.46295	0.023651	0.012207	0.01358	-0.57236	0.04837	0.23666	0.059814	-0.05722	-0.32745	0.14893	0.49667	-0.078125	0.084839	-0.22018	0.037079	-0.003204	-0.29648	0.002289	0.1181	0.017242	-0.003052	-0.000763
3.51	0.018616	0.062714	0.03067	0.043182	-0.012665	-0.050507	-0.17242	-0.002594	0.001221	0.16388	0.019073	0.018005	-0.010376	-0.75729	-0.035553	0.006561	0.001526	-0.002747	-0.3154	0.19424	0.48157	-0.048523	0.050659	-0.00824	0.060425	-0.00061	-0.21912	0.007782	-0.20538	-0.027008	-0.00351	-0.005035
3.511	0.016632	0.03952	0.11673	0.026855	-0.002747	-0.016785	-0.19196	0.002747	-0.002899	-0.014496	0.022278	0.024567	-0.009918	-0.93735	-0.050812	-0.059967	0.008392	0.019073	-0.46829	0.085754	0.4538	-0.056763	0.007172	0.08606	0.033112	-0.003357	-0.1268	0.000305	-0.10437	-0.019989	-0.003662	-0.002747
3.512	0.01358	0.046234	0.19073	0.002289	0.000153	-0.024719	-0.17212	0.003357	-0.00885	-0.046082	0.020905	0.056152	-0.013428	-0.50995	-0.050201	-0.08316	0.01358	0.083313	-0.58762	0.043182	0.60821	-0.11658	0.001678	0.11932	0.24506	-0.008392	-0.10712	0	0.093231	-0.01236	-0.003662	0.002747
3.513	0.01358	0.028381	0.15335	0.009918	0.019226	-0.00473	-0.17731	-0.002899	-0.005646	-0.25772	0.027466	0.06134	-0.00946	0.15961	-0.046844	-0.068359	-0.006409	0.06958	-0.31357	-0.041199	0.62454	-0.039978	-0.090332	0.19577	0.57053	-0.005341	-0.3656	0.000458	0.22507	0.018768	-0.00061	0.002441
3.514	0.013428	0.034943	0.15213	0.016479	0.030975	0.043335	-0.17075	0.001831	-0.006561	-0.17319	0.024567	0.02533	-0.022583	0.49927	-0.034943	-0.094757	-0.001678	0.0737	-0.27206	-0.062714	0.61356	-0.065613	0.009155	0.13199	0.46982	-0.003052	-0.46585	-0.00061	0.10757	0.005493	-0.004883	0.003967
3.515	0.016479	0.055389	0.18341	0.001678	0.030365	0.043335	-0.15793	-0.019379	-0.026855	-0.084229	0.033112	0.032043	-0.001068	0.4184	-0.020752	-0.071869	0.005035	0.11154	0.077972	-0.08667	0.43304	-0.023193	0.11368	-0.07019	0.1355	-0.003052	-0.31509	0.010681	0.060883	-0.018768	-0.00824	0.005798
3.516	0.003357	0.06012	0.25314	0.003815	0.033875	0.022125	-0.14023	0.017242	-0.035858	-0.095825	0.022583	0.029449	-0.006409	0.20874	0.006561	-0.069427	0.001221	0.095062	0.022888	-0.079193	0.33493	0.059662	0.049744	-0.077209	-0.12909	-0.001678	-0.19638	-0.001984	0.2536	-0.002899	-0.00351	0.004883
3.517	0.006409	0.069885	0.20966	0.026398	0.005493	0.059052	-0.121	0.001373	-0.034485	-0.17075	0.034637	0.026703	-0.06546	0.224	0.018158	-0.065918	-0.007629	0.11063	-0.29098	-0.051422	0.38055	0.038147	-0.15823	-0.17151	-0.16007	0.000305	-0.11627	-0.004425	0.22369	-0.002289	-0.005493	0.007782
3.518	0.010071	0.11627	0.21896	0.010681	-0.012054	0.074921	-0.1474	-0.005341	-0.032501	-0.21759	0.032806	0.024872	-0.085144	0.31128	0.020142	-0.41412	-0.018463	0.17105	-0.74829	-0.060883	0.36682	0.12146	-0.25146	-0.32455	-0.14206	-0.000916	-0.040436	-0.001526	-0.10193	0.004272	-0.004883	0.003815
3.519	0.023346	0.13351	0.23209	0.006104	-0.00061	0.06073	-0.12344	0.002136	-0.03418	-0.19745	0.02533	0.034027	-0.092163	0.39002	0.032349	-0.066376	0.010529	0.24948	-0.88531	-0.031586	0.30411	0.12802	-0.22659	-0.36941	-0.23193	-0.003967	-0.033875	-0.00473	-0.63385	0.015564	-0.002594	0.00351
3.52	0.026398	0.13626	0.24689	0.000305	-0.018158	0.008087	-0.14282	-0.001373	-0.016937	-0.07782	0.028839	0.017853	-0.10986	0.33478	0.03418	0.72037	0.03006	0.28931	-0.59204	-0.13779	0.22858	0.047302	-0.16037	-0.41519	-0.27237	0.000153	0.041656	-0.00824	-0.26398	0.018463	-0.001526	0.010986
3.521	0.027771	0.121	0.28458	0.000763	0.043335	-0.007324	-0.13107	-0.007324	-0.016937	0.22705	0.020142	0.009918	-0.056763	0.20096	0.054016	-0.28198	0.023651	0.18738	0.036316	-0.10498	0.15701	0.022736	-0.17639	-0.38376	-0.19699	-0.002441	0.08194	-0.005188	0.1593	0.036926	-0.001221	0.002899
3.522	0.019226	0.12634	0.35172	0.011444	0.051422	0.078888	-0.13031	0.000458	-0.022125	0.45502	0.019989	0.10559	-0.11643	0.050507	0.064697	0.022125	0.030365	0.13001	0.48065	-0.01236	0.14633	0.038452	-0.005035	-0.32867	-0.10498	-0.000763	0.015869	-0.005951	0.16953	0.016632	0.006866	-0.001526
3.523	0.012817	0.093994	0.2565	-0.002747	0.00885	0.1207	-0.11017	0.005493	-0.022125	0.551	0.021362	-0.04425	-0.11963	-0.011139	0.056	0.42938	0.013733	0.022583	0.50568	0.1088	0.41443	0.009308	0.024872	-0.15625	0.018768	-0.006866	-0.020599	-0.00351	0.059509	0.041046	-0.003052	0.004425
3.524	0.019073	0.058441	0.31403	0.001068	-0.024109	0.14618	-0.14023	0.006866	-0.019989	0.3421	0.02121	-0.12314	0.032806	0.085754	0.058441	0.064392	0.000305	-0.020447	0.39764	0.10132	0.48721	-0.019073	0.049133	0.014191	0.13336	-0.000916	-0.033264	-0.00885	0.14694	0.024567	-0.003662	0.003357
3.525	0.019684	0.098572	0.31418	0.004883	-0.016327	0.050659	-0.12863	0.009613	-0.019073	0.43091	-0.005188	0.14954	0.020599	0.33371	0.028381	-0.096741	-0.024872	0.039673	0.23941	0.025482	0.39887	0.06073	-0.095062	0.097046	0.24796	0.001068	0.023956	-0.007019	0.16022	-0.015564	-0.003967	0.005188
3.526	0.018921	0.12192	0.31235	0.00824	0.04425	0.008392	-0.112	0.003662	-0.007935	0.20233	0.009613	0.25925	-0.004272	0.62592	-0.028381	0.38971	0.022583	0.13275	-0.045776	-0.087128	0.28839	0.03479	-0.093842	0.002899	0.34882	-0.002747	0.085297	-0.00824	-0.28961	-0.001221	-0.000916	0.019684
3.527	0.024261	0.11978	0.29923	0.003204	0.040894	-0.056152	-0.11337	0.007324	-0.00824	0.37354	0.018921	-0.271	0.054169	0.9314	-0.010223	0.30365	0.071869	0.14908	-0.072632	-0.045929	0.24628	-0.13031	0.029297	-0.10254	0.37796	-0.001984	0.066528	-0.005035	-0.72037	-0.028381	-0.003815	0.007172
3.528	0.018311	0.11231	0.31418	0.029449	0.017853	-0.10407	-0.12817	0.00473	-0.005798	0.96161	0.014038	-0.094452	0.26794	0.55176	-0.072327	-0.29343	0.079651	0.18204	-0.088196	0.069275	0.25681	-0.31036	0.081787	-0.094452	0.30319	-0.013123	0.090942	-0.011292	-0.39902	0.016174	0.002136	0.006256
3.529	0.020599	0.12222	0.31891	-0.00824	-0.004425	-0.15945	-0.13321	0.005035	-0.01297	0.57785	0.025024	-0.081024	0.29862	-0.35049	-0.096893	-0.2945	0.05188	0.19363	-0.14938	0.10498	0.16953	-0.30273	-0.043488	-0.013885	0.23483	-0.007172	0.097809	-0.009918	0.26672	0.005035	-0.00351	0.010071
3.53	0.015106	0.12878	0.31326	0.027161	-0.014191	-0.12466	-0.12009	0.007019	-0.01297	-1.0054	0.027161	0.79147	0.15717	-0.27298	-0.06012	-0.15274	0.023499	0.098724	-0.4602	0.18295	-0.14755	-0.15686	-0.040131	0.042725	0.12466	-0.001831	0.092163	-0.010529	-0.080414	-0.059052	-0.005035	0.006409
3.531	0.023651	0.13382	0.32242	-0.001831	-0.021362	-0.080566	-0.13428	0.004425	-0.003052	-1.2367	0.02594	-0.31036	-0.054321	0.1593	-0.010681	0.057678	-0.012054	0.11093	-0.57404	0.23804	0.020294	-0.13229	-0.02655	0.030975	0.06134	-0.000916	0.095367	-0.00946	-0.42618	-0.02121	-0.003204	0.00824
